<svg width="13" height="24" viewBox="0 0 13 24" fill="none" xmlns="http://www.w3.org/2000/svg">
<path d="M12.2964 0.409622L9.23162 0.404785C5.78848 0.404785 3.56337 2.65035 3.56337 6.12595V8.76379H0.481902C0.215627 8.76379 0 8.97613 0 9.23806V13.06C0 13.3219 0.215873 13.534 0.481902 13.534H3.56337V23.178C3.56337 23.4399 3.779 23.652 4.04527 23.652H8.06571C8.33199 23.652 8.54761 23.4396 8.54761 23.178V13.534H12.1506C12.4168 13.534 12.6325 13.3219 12.6325 13.06L12.6339 9.23806C12.6339 9.11229 12.5831 8.99185 12.4928 8.90285C12.4026 8.81385 12.2796 8.76379 12.1518 8.76379H8.54761V6.52766C8.54761 5.45289 8.80799 4.90728 10.2313 4.90728L12.2959 4.90655C12.5619 4.90655 12.7775 4.69421 12.7775 4.43253V0.883645C12.7775 0.622207 12.5622 0.410106 12.2964 0.409622Z" fill="#BABABA"/>
</svg>
