<svg width="23" height="18" viewBox="0 0 23 18" fill="none" xmlns="http://www.w3.org/2000/svg">
<path d="M21.4556 0.441803L1.18612 7.73408C0.529588 7.9703 0.569362 8.84009 1.24518 9.0243L6.39587 10.4285L8.31811 16.0596C8.5189 16.6478 9.32628 16.8261 9.79366 16.3855L12.4567 13.8752L17.6818 17.4161C18.3212 17.8494 19.2319 17.5275 19.3943 16.8107L22.8549 1.53584C23.0244 0.78763 22.227 0.164256 21.4556 0.441803ZM18.9143 3.83167L9.49928 11.5181C9.40543 11.5947 9.3457 11.7008 9.33174 11.8157L8.96925 14.7906C8.95741 14.8876 8.81035 14.9005 8.77896 14.8073L7.28758 10.3706C7.21928 10.1675 7.30833 9.94745 7.50408 9.83539L18.6223 3.46927C18.8779 3.32276 19.1397 3.64771 18.9143 3.83167Z" fill="#BABABA"/>
</svg>
