<svg width="24" height="14" viewBox="0 0 24 14" fill="none" xmlns="http://www.w3.org/2000/svg">
<path d="M23.8748 12.5385C23.8463 12.4764 23.8196 12.425 23.7949 12.3838C23.3856 11.641 22.6035 10.7294 21.4491 9.64864L21.4247 9.62389L21.4124 9.61175L21.4001 9.59931H21.3877C20.8637 9.09604 20.5319 8.75765 20.393 8.5844C20.1388 8.25438 20.0818 7.92032 20.2208 7.58184C20.3189 7.32611 20.6877 6.78604 21.3261 5.96089C21.662 5.52359 21.928 5.17311 22.1244 4.90905C23.541 3.01144 24.1552 1.79883 23.9668 1.27077L23.8936 1.14737C23.8444 1.07307 23.7175 1.00511 23.5131 0.943127C23.3081 0.881275 23.0462 0.871046 22.7268 0.912267L19.1897 0.936886C19.1324 0.916427 19.0505 0.918334 18.9439 0.943127C18.8375 0.96792 18.7842 0.980361 18.7842 0.980361L18.7227 1.01135L18.6738 1.04858C18.6328 1.0732 18.5878 1.11651 18.5386 1.1784C18.4897 1.24008 18.4488 1.31246 18.4161 1.39495C18.031 2.39321 17.5932 3.32135 17.1018 4.17931C16.7988 4.6909 16.5206 5.13427 16.2665 5.50968C16.0127 5.88495 15.7998 6.16145 15.628 6.33868C15.4559 6.51609 15.3006 6.65822 15.1612 6.76558C15.0219 6.87299 14.9156 6.91837 14.842 6.90177C14.7682 6.88517 14.6988 6.8687 14.633 6.85223C14.5184 6.77794 14.4263 6.6769 14.3568 6.54903C14.287 6.42117 14.2401 6.26023 14.2155 6.06635C14.1911 5.87234 14.1766 5.70547 14.1725 5.56516C14.1686 5.42503 14.1704 5.22681 14.1787 4.97108C14.1872 4.71522 14.1911 4.5421 14.1911 4.45134C14.1911 4.13778 14.1971 3.79749 14.2093 3.43036C14.2217 3.06323 14.2317 2.77235 14.2401 2.55805C14.2484 2.34354 14.2523 2.11659 14.2523 1.87733C14.2523 1.63807 14.2379 1.45043 14.2093 1.31424C14.1811 1.17823 14.1378 1.0462 14.0807 0.918204C14.0232 0.790338 13.9392 0.691427 13.8289 0.621209C13.7184 0.551077 13.581 0.495423 13.4175 0.454072C12.9835 0.355117 12.4308 0.301587 11.7593 0.293265C10.2364 0.276794 9.25785 0.375879 8.82388 0.590391C8.65194 0.681024 8.49634 0.804859 8.35722 0.961505C8.2098 1.14307 8.18924 1.24216 8.29566 1.25846C8.78701 1.33262 9.13486 1.51003 9.33958 1.79051L9.41336 1.93914C9.47074 2.04637 9.52804 2.23622 9.58539 2.50842C9.64264 2.78063 9.67959 3.08174 9.69586 3.41159C9.73672 4.01395 9.73672 4.52957 9.69586 4.95851C9.65486 5.38762 9.61614 5.72168 9.57919 5.96094C9.54224 6.2002 9.487 6.39408 9.41336 6.54253C9.33958 6.69103 9.2905 6.78179 9.26589 6.81474C9.24133 6.84768 9.22085 6.86844 9.20459 6.87659C9.09816 6.91768 8.98748 6.93861 8.87292 6.93861C8.75819 6.93861 8.61907 6.88079 8.45535 6.76524C8.29166 6.64968 8.12179 6.49095 7.94571 6.28879C7.76964 6.08659 7.57107 5.80403 7.34991 5.44106C7.12893 5.0781 6.89965 4.64912 6.66219 4.15413L6.46572 3.79515C6.34291 3.56421 6.17514 3.22794 5.96224 2.78665C5.74922 2.34519 5.56093 1.91816 5.39724 1.50565C5.33181 1.3324 5.23352 1.20051 5.10253 1.10974L5.04105 1.07251C5.00019 1.03957 4.93459 1.00459 4.84459 0.967314C4.75447 0.930081 4.66043 0.90338 4.56209 0.886953L1.19684 0.911573C0.852955 0.911573 0.619626 0.990069 0.496766 1.14685L0.447597 1.22101C0.423034 1.26232 0.410645 1.32829 0.410645 1.41909C0.410645 1.50986 0.435208 1.62125 0.484377 1.75315C0.975642 2.91651 1.50988 4.03848 2.0871 5.11923C2.66431 6.19998 3.1659 7.07055 3.59156 7.73017C4.01731 8.39026 4.45128 9.01325 4.89346 9.59883C5.33564 10.1846 5.62834 10.56 5.77154 10.725C5.91492 10.8902 6.02754 11.0137 6.10941 11.0962L6.41651 11.3932C6.61302 11.5912 6.90158 11.8284 7.28233 12.1047C7.66317 12.3812 8.08479 12.6534 8.54741 12.9217C9.01011 13.1897 9.54839 13.4083 10.1626 13.5774C10.7766 13.7466 11.3743 13.8146 11.9557 13.7818H13.3682C13.6546 13.7569 13.8717 13.6661 14.0192 13.5095L14.068 13.4474C14.1009 13.3982 14.1317 13.3217 14.16 13.2187C14.1888 13.1156 14.2031 13.002 14.2031 12.8784C14.1947 12.5238 14.2215 12.2041 14.2827 11.9195C14.3439 11.635 14.4137 11.4205 14.4918 11.276C14.5697 11.1317 14.6578 11.0099 14.7557 10.9111C14.8539 10.8122 14.9238 10.7522 14.9649 10.7316C15.0056 10.7108 15.0382 10.6967 15.0628 10.6883C15.2593 10.6223 15.4905 10.6862 15.7569 10.8803C16.0231 11.0741 16.2727 11.3135 16.5062 11.5981C16.7396 11.8828 17.02 12.2023 17.3474 12.557C17.6751 12.9118 17.9616 13.1756 18.2071 13.3491L18.4527 13.4976C18.6167 13.5967 18.8296 13.6874 19.0916 13.7699C19.3532 13.8524 19.5824 13.873 19.7792 13.8318L22.9233 13.7824C23.2343 13.7824 23.4762 13.7305 23.6479 13.6275C23.8199 13.5244 23.922 13.4108 23.955 13.2872C23.9878 13.1635 23.9896 13.0232 23.9612 12.8663C23.9321 12.7097 23.9034 12.6003 23.8748 12.5385Z" fill="#BABABA"/>
</svg>
