<svg width="20" height="25" viewBox="0 0 20 25" fill="none" xmlns="http://www.w3.org/2000/svg">
<path d="M19.9949 21.6104L18.5641 5.4908C18.5335 5.13292 18.232 4.86196 17.8794 4.86196H14.9361C14.8952 2.1728 12.698 0 10 0C7.30199 0 5.10475 2.1728 5.06387 4.86196H2.12059C1.7629 4.86196 1.46653 5.13292 1.43587 5.4908L0.00510998 21.6104C0.00510998 21.6309 0 21.6513 0 21.6718C0 23.5072 1.68114 25 3.75064 25H16.2494C18.3189 25 20 23.5072 20 21.6718C20 21.6513 20 21.6309 19.9949 21.6104ZM10 1.38037C11.9366 1.38037 13.5156 2.93456 13.5565 4.86196H6.44354C6.48441 2.93456 8.06336 1.38037 10 1.38037ZM16.2494 23.6196H3.75064C2.45273 23.6196 1.4001 22.7607 1.37966 21.7025L2.74911 6.24744H5.05876V8.34356C5.05876 8.72699 5.36536 9.03374 5.74859 9.03374C6.13183 9.03374 6.43843 8.72699 6.43843 8.34356V6.24744H13.5565V8.34356C13.5565 8.72699 13.8631 9.03374 14.2463 9.03374C14.6295 9.03374 14.9361 8.72699 14.9361 8.34356V6.24744H17.2458L18.6203 21.7025C18.5999 22.7607 17.5422 23.6196 16.2494 23.6196Z" fill="#060528"/>
</svg>
