<svg width="27" height="25" viewBox="0 0 27 25" fill="none" xmlns="http://www.w3.org/2000/svg">
<path d="M13.5 25C13.1156 25 12.745 24.8551 12.4562 24.5918C11.3655 23.5992 10.3139 22.6664 9.3861 21.8436L9.38136 21.8393C6.66122 19.4268 4.31227 17.3434 2.67792 15.2911C0.85096 12.9967 0 10.8214 0 8.44489C0 6.13595 0.760735 4.00581 2.14192 2.44657C3.53959 0.868907 5.45739 0 7.54266 0C9.10121 0 10.5285 0.512812 11.7849 1.52407C12.4189 2.03452 12.9937 2.65925 13.5 3.38794C14.0065 2.65925 14.5811 2.03452 15.2153 1.52407C16.4717 0.512812 17.899 0 19.4575 0C21.5426 0 23.4606 0.868907 24.8583 2.44657C26.2395 4.00581 27 6.13595 27 8.44489C27 10.8214 26.1492 12.9967 24.3223 15.2909C22.6879 17.3434 20.3392 19.4266 17.6195 21.8389C16.69 22.663 15.6368 23.5973 14.5436 24.5922C14.255 24.8551 13.8842 25 13.5 25ZM7.54266 1.64606C5.9044 1.64606 4.39941 2.32652 3.30455 3.56224C2.19342 4.81661 1.58141 6.55057 1.58141 8.44489C1.58141 10.4436 2.29518 12.2312 3.89555 14.2408C5.44235 16.1834 7.7431 18.2239 10.407 20.5866L10.4119 20.5909C11.3432 21.417 12.399 22.3534 13.4977 23.3533C14.6031 22.3515 15.6605 21.4135 16.5936 20.5862C19.2573 18.2235 21.5579 16.1834 23.1047 14.2408C24.7048 12.2312 25.4186 10.4436 25.4186 8.44489C25.4186 6.55057 24.8066 4.81661 23.6954 3.56224C22.6008 2.32652 21.0956 1.64606 19.4575 1.64606C18.2574 1.64606 17.1556 2.0431 16.1827 2.82604C15.3156 3.52408 14.7117 4.40649 14.3576 5.02393C14.1755 5.34143 13.8549 5.53095 13.5 5.53095C13.1451 5.53095 12.8245 5.34143 12.6424 5.02393C12.2886 4.40649 11.6846 3.52408 10.8173 2.82604C9.84444 2.0431 8.74258 1.64606 7.54266 1.64606Z" fill="#060528"/>
</svg>
