<svg width="208" height="65" viewBox="0 0 208 65" fill="none" xmlns="http://www.w3.org/2000/svg">
<rect width="208" height="65" fill="#E5E5E5"/>
<g clip-path="url(#clip0)">
<rect width="1920" height="4445" transform="translate(-140 -60)" fill="white"/>
<rect x="-110" y="-30" width="1860" height="400" fill="#F3F3F3"/>
<path d="M91.269 52.7598H107.048C110.814 52.7598 114.579 52.7598 114.579 47.261V43.9138C114.579 38.415 110.814 38.415 107.048 38.415H99.1586C98.2023 38.415 97.3057 38.415 97.3057 36.9805V35.7851C97.3057 34.3506 98.2621 34.3506 99.1586 34.3506H113.085V29.8081H98.8C95.0345 29.8081 91.269 29.8081 91.269 35.307V37.4587C91.269 42.9575 95.0345 42.9575 98.8 42.9575H106.69C107.646 42.9575 108.543 42.9575 108.543 44.392V46.7828C108.543 48.2173 107.586 48.2173 106.69 48.2173H91.269V52.7598ZM69.4529 46.7828V44.392C69.4529 42.9575 70.4092 42.9575 71.3057 42.9575H80.6897V48.2173H71.3057C70.3494 48.2173 69.4529 48.2173 69.4529 46.7828ZM63.4161 47.261C63.4161 52.7598 67.1816 52.7598 70.9471 52.7598H86.7264V35.3667C86.7264 29.8679 82.9609 29.8679 79.1954 29.8679H64.9103V34.4104H78.8368C79.7931 34.4104 80.6897 34.4104 80.6897 35.8449V38.4748H70.8874C67.1218 38.4748 63.3563 38.4748 63.3563 43.9736V47.261H63.4161Z" fill="#0FCF9C"/>
<path d="M173.333 29.9279L179.37 52.7601H186.722L190.667 37.7578L194.611 52.7601H201.963L208 29.9279H201.963L197.839 45.6475L194.074 31.3624H187.32L183.554 45.6475L179.43 29.9279H173.333ZM153.011 38.4751V35.8452C153.011 34.4107 153.968 34.4107 154.864 34.4107H162.395C163.352 34.4107 164.248 34.4107 164.248 35.8452V38.4751H153.011ZM146.975 47.2613C146.975 52.7601 150.74 52.7601 154.506 52.7601H169.568V48.2176H154.864C153.908 48.2176 153.011 48.2176 153.011 46.7831V42.9578H170.345V35.367C170.345 29.8682 166.579 29.8682 162.814 29.8682H154.506C150.74 29.8682 146.975 29.8682 146.975 35.367V47.2613ZM119.122 52.7601H125.159V34.4705H134.543C135.499 34.4705 136.395 34.4705 136.395 35.9049V52.8199H142.432V35.4268C142.432 29.9279 138.667 29.9279 134.901 29.9279H119.122V52.7601Z" fill="#1D0081"/>
<path fill-rule="evenodd" clip-rule="evenodd" d="M52.2988 46.6634L46.8 41.2244L37.6552 50.4887L43.6919 56.4657L50.0873 62.8611L51.5218 64.2956C54.8092 61.4267 54.5103 48.8152 52.2988 46.6634Z" fill="#1D0081"/>
<path fill-rule="evenodd" clip-rule="evenodd" d="M12.6714 46.6634L18.1702 41.2244L27.3151 50.4887L21.2783 56.4657L14.8829 62.8611L13.4484 64.2956C10.161 61.4267 10.4599 48.8152 12.6714 46.6634Z" fill="#1D0081"/>
<path fill-rule="evenodd" clip-rule="evenodd" d="M36.5196 25.3256L61.2645 0.760058C62.0415 -0.196264 64.253 -0.554883 64.9702 1.53707V18.5716C64.9702 22.9348 61.5633 26.6405 60.3679 27.8957L48.892 39.1922L39.7472 48.3371L37.715 50.3692C32.9334 46.4244 33.3518 28.4336 36.5196 25.3256Z" fill="#0FCF9C"/>
<path fill-rule="evenodd" clip-rule="evenodd" d="M28.4506 25.3256L3.70574 0.760058C2.92873 -0.196264 0.717241 -0.554883 0 1.53707V18.5716C0 22.9348 3.40689 26.6405 4.6023 27.8957L16.0782 39.1922L25.223 48.3371L27.2552 50.3692C32.0368 46.4244 31.5586 28.4336 28.4506 25.3256Z" fill="#0FCF9C"/>
</g>
<defs>
<clipPath id="clip0">
<rect width="1920" height="4445" fill="white" transform="translate(-140 -60)"/>
</clipPath>
</defs>
</svg>
