<svg width="25" height="25" viewBox="0 0 25 25" fill="none" xmlns="http://www.w3.org/2000/svg">
<path d="M1.15002 18.843L1.15001 18.843C0.571001 19.4207 0.523233 20.4829 1.16775 21.2339L3.52242 23.5836L3.02797 24.0791L3.52243 23.5836C3.97969 24.0399 4.66216 24.2983 5.5987 24.3C6.54096 24.3017 7.69217 24.0408 8.99022 23.5092C11.5838 22.447 14.6303 20.3589 17.5171 17.4782C20.4016 14.5997 22.463 11.5609 23.5123 8.973C24.0375 7.6779 24.2965 6.52684 24.3 5.58304C24.3034 4.64648 24.0575 3.96453 23.6285 3.51025L21.263 1.14965C20.6831 0.571025 19.6163 0.523467 18.8629 1.16733L15.3844 4.63847C14.487 5.53401 14.8811 7.00226 15.9695 7.33643L15.9772 7.33881L15.9849 7.34137C17.4028 7.81295 18.4302 9.39857 17.9363 10.9381C17.5738 12.4183 16.4796 13.9813 15.2096 15.2327C13.9307 16.4927 12.3569 17.5515 10.9389 17.9052L10.93 17.9075L10.9211 17.9094C9.48174 18.2287 7.85752 17.4464 7.35855 15.9526L7.35597 15.9449L7.35357 15.9371C7.01938 14.8533 5.54603 14.4562 4.64619 15.3541L1.15002 18.843Z" stroke="#060528" stroke-width="1.4"/>
</svg>
