<svg width="208" height="65" fill="none" xmlns="http://www.w3.org/2000/svg"><path fill="#E5E5E5" d="M0 0h208v65H0z"/><g clip-path="url(#clip0)"><path fill="#fff" d="M-140-60h1920v4445H-140z"/><path fill="#F3F3F3" d="M-110-30h1860v400H-110z"/><path d="M91.269 52.76h15.779c3.766 0 7.531 0 7.531-5.499v-3.347c0-5.499-3.765-5.499-7.531-5.499h-7.89c-.956 0-1.852 0-1.852-1.434v-1.196c0-1.434.956-1.434 1.853-1.434h13.926v-4.543H98.8c-3.766 0-7.531 0-7.531 5.499v2.152c0 5.498 3.765 5.498 7.531 5.498h7.89c.956 0 1.853 0 1.853 1.435v2.39c0 1.435-.957 1.435-1.853 1.435H91.269v4.543zm-21.816-5.977v-2.391c0-1.434.956-1.434 1.853-1.434h9.384v5.26h-9.384c-.957 0-1.853 0-1.853-1.435zm-6.037.478c0 5.499 3.766 5.499 7.531 5.499h15.78V35.367c0-5.5-3.766-5.5-7.532-5.5H64.91v4.543h13.927c.956 0 1.853 0 1.853 1.435v2.63h-9.803c-3.765 0-7.53 0-7.53 5.499v3.287h.06z" fill="#0FCF9C"/><path d="M173.333 29.928l6.037 22.832h7.352l3.945-15.002 3.944 15.002h7.352L208 29.928h-6.037l-4.124 15.72-3.765-14.286h-6.754l-3.766 14.286-4.124-15.72h-6.097zm-20.322 8.547v-2.63c0-1.434.957-1.434 1.853-1.434h7.531c.957 0 1.853 0 1.853 1.434v2.63h-11.237zm-6.036 8.786c0 5.5 3.765 5.5 7.531 5.5h15.062v-4.543h-14.704c-.956 0-1.853 0-1.853-1.435v-3.825h17.334v-7.591c0-5.499-3.766-5.499-7.531-5.499h-8.308c-3.766 0-7.531 0-7.531 5.499v11.894zm-27.853 5.5h6.037V34.47h9.384c.956 0 1.852 0 1.852 1.434V52.82h6.037V35.427c0-5.5-3.765-5.5-7.531-5.5h-15.779V52.76z" fill="#1D0081"/><path fill-rule="evenodd" clip-rule="evenodd" d="M52.299 46.663L46.8 41.224l-9.145 9.265 6.037 5.977 6.395 6.395 1.435 1.435c3.287-2.87 2.988-15.48.777-17.633zm-39.628 0l5.5-5.439 9.144 9.265-6.037 5.977-6.395 6.395-1.435 1.435c-3.287-2.87-2.988-15.48-.777-17.633z" fill="#1D0081"/><path fill-rule="evenodd" clip-rule="evenodd" d="M36.52 25.326L61.264.76c.777-.956 2.989-1.315 3.706.777v17.035c0 4.363-3.407 8.069-4.602 9.324L48.892 39.192l-9.145 9.145-2.032 2.032c-4.782-3.945-4.363-21.935-1.195-25.043zm-8.07 0L3.707.76C2.929-.196.717-.555 0 1.537v17.035c0 4.363 3.407 8.069 4.602 9.324l11.476 11.296 9.145 9.145 2.032 2.032c4.782-3.945 4.304-21.935 1.196-25.043z" fill="#0FCF9C"/></g><defs><clipPath id="clip0"><path fill="#fff" transform="translate(-140 -60)" d="M0 0h1920v4445H0z"/></clipPath></defs></svg>