<svg width="0" height="0" class="hidden">
  <symbol fill="none" xmlns="http://www.w3.org/2000/svg" viewBox="0 0 99 99" id="phone">
    <path d="M31.295 62.453h0l-.004-.012c-1.86-6.031-9.802-7.932-14.497-3.247L2.949 73.01c-3.25 3.243-3.285 8.854.012 12.626L12.344 95c2.353 2.348 5.703 3.493 9.823 3.501 4.124.007 8.986-1.127 14.295-3.301 10.617-4.348 22.925-12.816 34.51-24.377C82.558 59.262 90.92 46.98 95.215 36.387c2.148-5.298 3.27-10.152 3.286-14.27.015-4.113-1.073-7.456-3.304-9.802l-9.39-9.37c-3.25-3.244-8.875-3.28-12.656.011L59.317 16.76c-4.693 4.684-2.79 12.608 3.255 14.464h0l.011.004c4.66 1.55 7.826 6.726 6.257 11.467-1.272 5.304-5.296 11.172-10.205 16.008-4.915 4.843-10.801 8.734-15.867 9.997h0l-.013.003c-4.675 1.037-9.888-1.544-11.46-6.25z" stroke="#1D0081"></path>
  </symbol>
  <symbol fill="none" xmlns="http://www.w3.org/2000/svg" viewBox="0 0 131 98" id="mail">
    <path d="M3.05 7.57h0a2.22 2.22 0 01-.312-3.066h0C4.735 1.956 7.706.5 10.888.5h108.89c3.183 0 6.154 1.456 8.15 4.003a2.22 2.22 0 01-.312 3.066h0c-17.93 15.185-49.406 41.914-58.67 50.26h0c-1.167 1.055-2.381 1.557-3.613 1.557-1.233 0-2.45-.507-3.62-1.567h0C52.455 49.48 20.98 22.754 3.05 7.569z" stroke="#1D0081"></path>
    <path d="M128.878 16.636h-.001a2.211 2.211 0 00-2.368.32h-.001C106.617 33.82 81.243 55.424 73.263 62.614c-4.672 4.218-11.182 4.218-15.865-.005-8.505-7.663-37-31.888-53.24-45.651h0a2.224 2.224 0 00-2.368-.322l127.088.001zm0 0a2.22 2.22 0 011.289 2.016v68.46c0 5.729-4.66 10.388-10.389 10.388H10.889C5.159 97.5.5 92.84.5 87.111v-68.46c0-.864.503-1.65 1.29-2.016l127.088.001z" stroke="#1D0081"></path>
  </symbol>
  <symbol fill="none" xmlns="http://www.w3.org/2000/svg" viewBox="0 0 93 99" id="person">
    <path fill-rule="evenodd" clip-rule="evenodd" d="M45.54 45.092c12.146 0 21.992-9.846 21.992-21.992S57.686 1.108 45.54 1.108c-12.145 0-21.991 9.846-21.991 21.992s9.846 21.992 21.991 21.992zm0 1.108c12.758 0 23.1-10.342 23.1-23.1C68.64 10.342 58.298 0 45.54 0c-12.758 0-23.1 10.342-23.1 23.1 0 12.758 10.342 23.1 23.1 23.1z" fill="#1D0081"></path>
    <path d="M92.4 99A46.2 46.2 0 000 99h.924a45.276 45.276 0 1190.552 0h.924z" fill="#1D0081"></path>
  </symbol>
</svg>
