<svg width="131" height="98" viewBox="0 0 131 98" fill="none" xmlns="http://www.w3.org/2000/svg">
<path d="M3.05078 7.56972L3.05041 7.56941C2.13956 6.7995 2.00008 5.44568 2.73839 4.50352L2.73839 4.50351C4.73451 1.95613 7.70613 0.5 10.8889 0.5H119.778C122.961 0.5 125.932 1.9561 127.928 4.50322C128.667 5.44568 128.527 6.79953 127.616 7.56941L127.616 7.56971C109.686 22.7542 78.2104 49.4833 68.9464 57.8293L68.9459 57.8297C67.7791 58.8838 66.5646 59.3862 65.3333 59.3862C64.1002 59.3862 62.8835 58.8793 61.7132 57.8194L61.7122 57.8186C52.4562 49.4807 20.9804 22.7541 3.05078 7.56972Z" stroke="#1D0081"/>
<path d="M128.878 16.636L128.877 16.6353C128.089 16.2687 127.163 16.397 126.509 16.9557L126.508 16.9569C106.617 33.8192 81.2426 55.423 73.2634 62.6129C68.5906 66.831 62.0807 66.8305 57.398 62.6079C48.893 54.9448 20.3972 30.7199 4.15868 16.9567L4.15842 16.9565C3.49933 16.3971 2.57024 16.2733 1.78959 16.6352L128.878 16.636ZM128.878 16.636C129.663 16.9982 130.167 17.7858 130.167 18.6517V87.1113C130.167 92.8407 125.507 97.5003 119.778 97.5003H10.889C5.15955 97.5003 0.5 92.8407 0.5 87.1113V18.6517C0.5 17.7865 1.00308 17.0006 1.78949 16.6353L128.878 16.636Z" stroke="#1D0081"/>
</svg>
