<svg width="93" height="99" viewBox="0 0 93 99" fill="none" xmlns="http://www.w3.org/2000/svg">
<path fill-rule="evenodd" clip-rule="evenodd" d="M45.5401 45.0917C57.6857 45.0917 67.5317 35.2457 67.5317 23.1C67.5317 10.9544 57.6857 1.1084 45.5401 1.1084C33.3945 1.1084 23.5485 10.9544 23.5485 23.1C23.5485 35.2457 33.3945 45.0917 45.5401 45.0917ZM45.5401 46.2001C58.2979 46.2001 68.6401 35.8578 68.6401 23.1C68.6401 10.3422 58.2979 0 45.5401 0C32.7823 0 22.4401 10.3422 22.4401 23.1C22.4401 35.8578 32.7823 46.2001 45.5401 46.2001Z" fill="#1D0081"/>
<path d="M92.4001 98.9999C92.4001 86.7469 87.5326 74.9957 78.8685 66.3315C70.2043 57.6673 58.4531 52.7998 46.2001 52.7998C33.9471 52.7998 22.1959 57.6673 13.5317 66.3315C4.8675 74.9957 1.85015e-06 86.7468 0 98.9999H0.924002C0.924004 86.9919 5.69415 75.4758 14.1851 66.9849C22.676 58.4939 34.1921 53.7238 46.2001 53.7238C58.208 53.7238 69.7242 58.494 78.2151 66.9849C86.706 75.4758 91.4761 86.9919 91.4761 98.9999H92.4001Z" fill="#1D0081"/>
</svg>
