<svg width="99" height="99" viewBox="0 0 99 99" fill="none" xmlns="http://www.w3.org/2000/svg">
<path d="M31.2948 62.4525L31.2947 62.4526L31.2913 62.4415C29.4315 56.41 21.4895 54.5086 16.794 59.1941L2.94923 73.0099C-0.300865 76.2529 -0.335922 81.864 2.96119 85.6363L12.3439 94.9993C14.6969 97.3474 18.0466 98.4924 22.1667 98.5C26.2908 98.5075 31.1532 97.3733 36.4623 95.199C47.0789 90.851 59.3866 82.3833 70.9725 70.8218C82.5567 59.2619 90.9187 46.9809 95.2143 36.3868C97.3625 31.089 98.4847 26.2352 98.4998 22.1172C98.515 18.0041 97.4273 14.6611 95.1963 12.3148L85.8062 2.94437C82.5557 -0.299303 76.9312 -0.334227 73.1503 2.95627L59.3174 16.7601C54.6237 21.444 56.5263 29.3678 62.5722 31.2242L62.5722 31.2241L62.5832 31.2277C67.2432 32.7776 70.4092 37.954 68.8402 42.6947C67.5676 47.9989 63.5438 53.8667 58.6353 58.703C53.7197 63.5461 47.8337 67.4366 42.7682 68.7003L42.7682 68.7005L42.7554 68.7033C38.0799 69.7403 32.867 67.1595 31.2948 62.4525Z" stroke="#1D0081"/>
</svg>
