<svg xmlns="http://www.w3.org/2000/svg" xmlns:xlink="http://www.w3.org/1999/xlink"><symbol id="footer-customer">
  <symbol fill="none" xmlns="http://www.w3.org/2000/svg" viewBox="0 0 13 24" id="facebook">
    <path d="M12.296.41L9.232.405c-3.444 0-5.669 2.245-5.669 5.72v2.639H.482A.478.478 0 000 9.238v3.822c0 .262.216.474.482.474h3.081v9.644c0 .262.216.474.482.474h4.02a.478.478 0 00.483-.474v-9.644h3.603a.478.478 0 00.482-.474V9.238a.47.47 0 00-.14-.335.486.486 0 00-.341-.14H8.548V6.529c0-1.075.26-1.62 1.683-1.62l2.065-.001a.478.478 0 00.482-.474V.883a.478.478 0 00-.482-.473z" fill="#BABABA"/>
  </symbol>
  <symbol fill="none" xmlns="http://www.w3.org/2000/svg" viewBox="0 0 21 20" id="instagram">
    <rect x=".815" y=".237" width="19.658" height="19.373" rx="3" fill="#C4C4C4"/>
    <ellipse cx="10.644" cy="9.924" rx="4.914" ry="4.843" fill="#fff"/>
    <ellipse cx="16.542" cy="4.113" rx=".983" ry=".969" fill="#fff"/>
  </symbol>
  <symbol fill="none" xmlns="http://www.w3.org/2000/svg" viewBox="0 0 23 18" id="telegram">
    <path d="M21.456.442L1.186 7.734c-.656.236-.617 1.106.06 1.29l5.15 1.405 1.922 5.63c.2.589 1.008.767 1.476.326l2.663-2.51 5.225 3.541c.64.433 1.55.111 1.712-.605l3.46-15.275c.17-.748-.627-1.372-1.398-1.094zm-2.542 3.39L9.5 11.518a.456.456 0 00-.167.298l-.363 2.975c-.012.097-.159.11-.19.016l-1.491-4.436a.45.45 0 01.216-.536L18.622 3.47c.256-.146.518.179.292.363z" fill="#BABABA"/>
  </symbol>
  <symbol fill="none" xmlns="http://www.w3.org/2000/svg" viewBox="0 0 24 14" id="vk">
    <path d="M23.875 12.539a1.615 1.615 0 00-.08-.155c-.41-.743-1.192-1.655-2.346-2.735l-.024-.025-.013-.012-.012-.013h-.012c-.524-.503-.856-.841-.995-1.015-.254-.33-.311-.664-.172-1.002.098-.256.467-.796 1.105-1.621.336-.437.602-.788.798-1.052 1.417-1.898 2.031-3.11 1.843-3.638l-.073-.124c-.05-.074-.176-.142-.38-.204-.206-.062-.468-.072-.787-.03L19.19.936a.456.456 0 00-.246.006l-.16.037-.061.031-.05.038a.547.547 0 00-.134.13.851.851 0 00-.123.216 20.275 20.275 0 01-1.314 2.784 26.11 26.11 0 01-.835 1.33 6.399 6.399 0 01-.639.83c-.172.177-.327.32-.467.427-.14.107-.245.152-.319.136a8.942 8.942 0 01-.209-.05.82.82 0 01-.276-.303 1.365 1.365 0 01-.141-.483 5.361 5.361 0 01-.043-.5 9.756 9.756 0 01.006-.595c.008-.256.012-.429.012-.52 0-.313.006-.654.018-1.02l.031-.873c.008-.214.012-.441.012-.68 0-.24-.014-.428-.043-.564a1.935 1.935 0 00-.128-.396.666.666 0 00-.252-.297 1.413 1.413 0 00-.412-.167c-.434-.099-.986-.152-1.658-.16C10.236.276 9.258.375 8.824.59a1.66 1.66 0 00-.467.372c-.147.181-.168.28-.061.296.491.075.839.252 1.044.533l.073.148c.058.107.115.297.172.57.058.272.095.573.11.903a9.446 9.446 0 010 1.547c-.04.429-.079.763-.116 1.002a2.01 2.01 0 01-.166.582 2.46 2.46 0 01-.147.272.212.212 0 01-.061.062.914.914 0 01-.332.062c-.115 0-.254-.058-.418-.174a2.955 2.955 0 01-.51-.476 6.369 6.369 0 01-.595-.848 14.83 14.83 0 01-.688-1.287l-.196-.359c-.123-.23-.29-.567-.504-1.008a19.527 19.527 0 01-.565-1.281.815.815 0 00-.294-.396l-.062-.037a.838.838 0 00-.196-.106 1.296 1.296 0 00-.283-.08L1.197.912c-.344 0-.577.078-.7.235l-.05.074a.403.403 0 00-.036.198c0 .09.024.202.073.334A40.976 40.976 0 002.087 5.12c.577 1.08 1.079 1.951 1.505 2.61.425.66.86 1.283 1.301 1.869.443.586.735.961.879 1.126.143.165.256.289.337.371l.308.297a7.3 7.3 0 00.865.712c.381.276.803.548 1.265.817a6.83 6.83 0 001.616.655c.614.17 1.211.238 1.793.205h1.412c.287-.025.504-.116.651-.273l.049-.062a.819.819 0 00.092-.228c.029-.103.043-.217.043-.34a4.11 4.11 0 01.08-.96c.06-.284.13-.498.209-.643a1.582 1.582 0 01.473-.544.777.777 0 01.098-.044c.196-.066.428-.002.694.192.266.194.516.433.75.718.233.285.513.604.84.959.328.355.615.619.86.792l.246.149c.164.099.377.19.639.272.261.082.49.103.687.062l3.144-.05c.311 0 .553-.052.725-.155.172-.103.274-.216.307-.34a.966.966 0 00.006-.42 1.556 1.556 0 00-.086-.329z" fill="#BABABA"/>
  </symbol>
</symbol><symbol id="row-contacts">
  <symbol fill="none" xmlns="http://www.w3.org/2000/svg" viewBox="0 0 99 99" id="phone">
    <path d="M31.295 62.453h0l-.004-.012c-1.86-6.031-9.802-7.932-14.497-3.247L2.949 73.01c-3.25 3.243-3.285 8.854.012 12.626L12.344 95c2.353 2.348 5.703 3.493 9.823 3.501 4.124.007 8.986-1.127 14.295-3.301 10.617-4.348 22.925-12.816 34.51-24.377C82.558 59.262 90.92 46.98 95.215 36.387c2.148-5.298 3.27-10.152 3.286-14.27.015-4.113-1.073-7.456-3.304-9.802l-9.39-9.37c-3.25-3.244-8.875-3.28-12.656.011L59.317 16.76c-4.693 4.684-2.79 12.608 3.255 14.464h0l.011.004c4.66 1.55 7.826 6.726 6.257 11.467-1.272 5.304-5.296 11.172-10.205 16.008-4.915 4.843-10.801 8.734-15.867 9.997h0l-.013.003c-4.675 1.037-9.888-1.544-11.46-6.25z" stroke="#1D0081"/>
  </symbol>
  <symbol fill="none" xmlns="http://www.w3.org/2000/svg" viewBox="0 0 131 98" id="mail">
    <path d="M3.05 7.57h0a2.22 2.22 0 01-.312-3.066h0C4.735 1.956 7.706.5 10.888.5h108.89c3.183 0 6.154 1.456 8.15 4.003a2.22 2.22 0 01-.312 3.066h0c-17.93 15.185-49.406 41.914-58.67 50.26h0c-1.167 1.055-2.381 1.557-3.613 1.557-1.233 0-2.45-.507-3.62-1.567h0C52.455 49.48 20.98 22.754 3.05 7.569z" stroke="#1D0081"/>
    <path d="M128.878 16.636h-.001a2.211 2.211 0 00-2.368.32h-.001C106.617 33.82 81.243 55.424 73.263 62.614c-4.672 4.218-11.182 4.218-15.865-.005-8.505-7.663-37-31.888-53.24-45.651h0a2.224 2.224 0 00-2.368-.322l127.088.001zm0 0a2.22 2.22 0 011.289 2.016v68.46c0 5.729-4.66 10.388-10.389 10.388H10.889C5.159 97.5.5 92.84.5 87.111v-68.46c0-.864.503-1.65 1.29-2.016l127.088.001z" stroke="#1D0081"/>
  </symbol>
  <symbol fill="none" xmlns="http://www.w3.org/2000/svg" viewBox="0 0 93 99" id="person">
    <path fill-rule="evenodd" clip-rule="evenodd" d="M45.54 45.092c12.146 0 21.992-9.846 21.992-21.992S57.686 1.108 45.54 1.108c-12.145 0-21.991 9.846-21.991 21.992s9.846 21.992 21.991 21.992zm0 1.108c12.758 0 23.1-10.342 23.1-23.1C68.64 10.342 58.298 0 45.54 0c-12.758 0-23.1 10.342-23.1 23.1 0 12.758 10.342 23.1 23.1 23.1z" fill="#1D0081"/>
    <path d="M92.4 99A46.2 46.2 0 000 99h.924a45.276 45.276 0 1190.552 0h.924z" fill="#1D0081"/>
  </symbol>
</symbol></svg>