<svg width="20" height="25" fill="none" xmlns="http://www.w3.org/2000/svg"><path d="M19.995 21.61l-1.43-16.12a.689.689 0 00-.686-.628h-2.943A4.941 4.941 0 0010 0a4.941 4.941 0 00-4.936 4.862H2.12a.685.685 0 00-.685.629L.006 21.61c0 .02-.006.04-.006.06C0 23.508 1.681 25 3.75 25h12.5c2.069 0 3.75-1.493 3.75-3.328 0-.02 0-.041-.005-.062zM10 1.38a3.561 3.561 0 013.556 3.482H6.444A3.561 3.561 0 0110 1.38zm6.25 22.24H3.75c-1.297 0-2.35-.86-2.37-1.918L2.75 6.248h2.309v2.097c0 .383.306.69.69.69.383 0 .69-.307.69-.69V6.247h7.117v2.097c0 .383.307.69.69.69.383 0 .69-.307.69-.69V6.247h2.31l1.374 15.456c-.02 1.058-1.078 1.917-2.37 1.917z" fill="#060528"/></svg>