<svg width="27" height="25" fill="none" xmlns="http://www.w3.org/2000/svg"><path d="M13.5 25a1.55 1.55 0 01-1.044-.408 316.17 316.17 0 00-3.07-2.748l-.005-.005c-2.72-2.412-5.069-4.496-6.703-6.548C.85 12.997 0 10.821 0 8.445c0-2.309.76-4.44 2.142-5.998C3.54.869 5.457 0 7.542 0c1.56 0 2.986.513 4.243 1.524A8.887 8.887 0 0113.5 3.388a8.888 8.888 0 011.715-1.864C16.472.513 17.9 0 19.457 0c2.086 0 4.004.869 5.401 2.447C26.24 4.006 27 6.136 27 8.445c0 2.376-.85 4.552-2.678 6.846-1.634 2.052-3.983 4.136-6.703 6.548-.929.824-1.982 1.758-3.075 2.753A1.55 1.55 0 0113.5 25zM7.543 1.646c-1.639 0-3.144.68-4.238 1.916C2.193 4.817 1.58 6.551 1.58 8.445c0 1.999.714 3.786 2.315 5.796 1.546 1.942 3.847 3.983 6.511 6.346l.005.004c.931.826 1.987 1.762 3.086 2.762a375.293 375.293 0 013.096-2.767c2.663-2.362 4.964-4.403 6.51-6.345 1.6-2.01 2.315-3.797 2.315-5.796 0-1.894-.612-3.628-1.724-4.883a5.595 5.595 0 00-4.238-1.916c-1.2 0-2.301.397-3.274 1.18-.867.698-1.471 1.58-1.825 2.198a.984.984 0 01-.858.507.984.984 0 01-.858-.507c-.353-.618-.957-1.5-1.825-2.198-.973-.783-2.074-1.18-3.274-1.18z" fill="#060528"/></svg>