<svg width="25" height="25" fill="none" xmlns="http://www.w3.org/2000/svg"><path d="M1.15 18.843h0c-.579.578-.627 1.64.018 2.39l2.354 2.35-.494.496.494-.495c.458.456 1.14.714 2.077.716.942.002 2.093-.26 3.391-.79 2.594-1.063 5.64-3.151 8.527-6.032 2.885-2.878 4.946-5.917 5.995-8.505.526-1.295.785-2.446.788-3.39.003-.937-.242-1.618-.672-2.073l-2.365-2.36c-.58-.579-1.647-.627-2.4.017l-3.479 3.471c-.897.896-.503 2.364.585 2.698l.008.003.008.002c1.418.472 2.445 2.058 1.951 3.597-.362 1.48-1.456 3.043-2.726 4.295-1.28 1.26-2.853 2.319-4.271 2.672l-.009.002-.009.002c-1.44.32-3.063-.463-3.562-1.956l-.003-.008-.002-.008c-.335-1.084-1.808-1.48-2.708-.583L1.15 18.843z" stroke="#060528" stroke-width="1.4"/></svg>