<svg width="131" height="98" fill="none" xmlns="http://www.w3.org/2000/svg"><path d="M3.05 7.57h0a2.22 2.22 0 01-.312-3.066h0C4.735 1.956 7.706.5 10.888.5h108.89c3.183 0 6.154 1.456 8.15 4.003a2.22 2.22 0 01-.312 3.066h0c-17.93 15.185-49.406 41.914-58.67 50.26h0c-1.167 1.055-2.381 1.557-3.613 1.557-1.233 0-2.45-.507-3.62-1.567h0C52.455 49.48 20.98 22.754 3.05 7.569z" stroke="#1D0081"/><path d="M128.878 16.636h-.001a2.211 2.211 0 00-2.368.32h-.001C106.617 33.82 81.243 55.424 73.263 62.614c-4.672 4.218-11.182 4.218-15.865-.005-8.505-7.663-37-31.888-53.24-45.651h0a2.224 2.224 0 00-2.368-.322l127.088.001zm0 0a2.22 2.22 0 011.289 2.016v68.46c0 5.729-4.66 10.388-10.389 10.388H10.889C5.159 97.5.5 92.84.5 87.111v-68.46c0-.864.503-1.65 1.29-2.016l127.088.001z" stroke="#1D0081"/></svg>