<svg width="93" height="99" fill="none" xmlns="http://www.w3.org/2000/svg"><path fill-rule="evenodd" clip-rule="evenodd" d="M45.54 45.092c12.146 0 21.992-9.846 21.992-21.992S57.686 1.108 45.54 1.108c-12.145 0-21.991 9.846-21.991 21.992s9.846 21.992 21.991 21.992zm0 1.108c12.758 0 23.1-10.342 23.1-23.1C68.64 10.342 58.298 0 45.54 0c-12.758 0-23.1 10.342-23.1 23.1 0 12.758 10.342 23.1 23.1 23.1z" fill="#1D0081"/><path d="M92.4 99A46.2 46.2 0 000 99h.924a45.276 45.276 0 1190.552 0h.924z" fill="#1D0081"/></svg>