<svg width="99" height="99" fill="none" xmlns="http://www.w3.org/2000/svg"><path d="M31.295 62.453h0l-.004-.012c-1.86-6.031-9.802-7.932-14.497-3.247L2.949 73.01c-3.25 3.243-3.285 8.854.012 12.626L12.344 95c2.353 2.348 5.703 3.493 9.823 3.501 4.124.007 8.986-1.127 14.295-3.301 10.617-4.348 22.925-12.816 34.51-24.377C82.558 59.262 90.92 46.98 95.215 36.387c2.148-5.298 3.27-10.152 3.286-14.27.015-4.113-1.073-7.456-3.304-9.802l-9.39-9.37c-3.25-3.244-8.875-3.28-12.656.011L59.317 16.76c-4.693 4.684-2.79 12.608 3.255 14.464h0l.011.004c4.66 1.55 7.826 6.726 6.257 11.467-1.272 5.304-5.296 11.172-10.205 16.008-4.915 4.843-10.801 8.734-15.867 9.997h0l-.013.003c-4.675 1.037-9.888-1.544-11.46-6.25z" stroke="#1D0081"/></svg>